<svg id="visual" viewBox="0 0 900 600" width="900" height="600" xmlns="http://www.w3.org/2000/svg" xmlns:xlink="http://www.w3.org/1999/xlink" version="1.1"><g stroke-width="1" stroke-linejoin="bevel"><path d="M433 306L473 372L460 274Z" fill="#246688" stroke="#246688"></path><path d="M473 372L561 270L460 274Z" fill="#15384f" stroke="#15384f"></path><path d="M561 270L462 215L460 274Z" fill="#19435d" stroke="#19435d"></path><path d="M460 274L381 206L433 306Z" fill="#297ea6" stroke="#297ea6"></path><path d="M433 306L407 417L473 372Z" fill="#112e42" stroke="#112e42"></path><path d="M462 215L381 206L460 274Z" fill="#277297" stroke="#277297"></path><path d="M433 306L295 408L407 417Z" fill="#15384f" stroke="#15384f"></path><path d="M571 529L631 405L473 372Z" fill="#1d4e6b" stroke="#1d4e6b"></path><path d="M473 372L631 405L561 270Z" fill="#00101c" stroke="#00101c"></path><path d="M381 206L321 266L433 306Z" fill="#277297" stroke="#277297"></path><path d="M685 292L623 187L561 270Z" fill="#297ea6" stroke="#297ea6"></path><path d="M561 270L573 132L462 215Z" fill="#19435d" stroke="#19435d"></path><path d="M462 215L470 86L381 206Z" fill="#277297" stroke="#277297"></path><path d="M407 417L473 515L473 372Z" fill="#00101c" stroke="#00101c"></path><path d="M631 405L685 292L561 270Z" fill="#205a7a" stroke="#205a7a"></path><path d="M701 478L668 407L631 405Z" fill="#19435d" stroke="#19435d"></path><path d="M631 405L668 407L685 292Z" fill="#00101c" stroke="#00101c"></path><path d="M321 266L295 408L433 306Z" fill="#00101c" stroke="#00101c"></path><path d="M407 417L399 518L473 515Z" fill="#246688" stroke="#246688"></path><path d="M623 187L573 132L561 270Z" fill="#112e42" stroke="#112e42"></path><path d="M295 408L399 518L407 417Z" fill="#277297" stroke="#277297"></path><path d="M381 206L286 227L321 266Z" fill="#246688" stroke="#246688"></path><path d="M321 266L185 278L295 408Z" fill="#1d4e6b" stroke="#1d4e6b"></path><path d="M295 99L286 227L381 206Z" fill="#205a7a" stroke="#205a7a"></path><path d="M515 600L571 529L473 515Z" fill="#0c2435" stroke="#0c2435"></path><path d="M473 515L571 529L473 372Z" fill="#1d4e6b" stroke="#1d4e6b"></path><path d="M573 132L470 86L462 215Z" fill="#00101c" stroke="#00101c"></path><path d="M470 86L364 102L381 206Z" fill="#0c2435" stroke="#0c2435"></path><path d="M685 292L702 168L623 187Z" fill="#297ea6" stroke="#297ea6"></path><path d="M623 187L665 107L573 132Z" fill="#277297" stroke="#277297"></path><path d="M629 0L461 0L470 86Z" fill="#0c2435" stroke="#0c2435"></path><path d="M571 529L701 478L631 405Z" fill="#1d4e6b" stroke="#1d4e6b"></path><path d="M668 407L782 331L685 292Z" fill="#081a28" stroke="#081a28"></path><path d="M685 292L835 214L702 168Z" fill="#1d4e6b" stroke="#1d4e6b"></path><path d="M702 168L665 107L623 187Z" fill="#112e42" stroke="#112e42"></path><path d="M389 600L515 600L473 515Z" fill="#19435d" stroke="#19435d"></path><path d="M571 529L617 600L701 478Z" fill="#0c2435" stroke="#0c2435"></path><path d="M295 408L263 507L399 518Z" fill="#1d4e6b" stroke="#1d4e6b"></path><path d="M399 518L389 600L473 515Z" fill="#19435d" stroke="#19435d"></path><path d="M176 366L263 507L295 408Z" fill="#297ea6" stroke="#297ea6"></path><path d="M298 0L295 99L364 102Z" fill="#00101c" stroke="#00101c"></path><path d="M364 102L295 99L381 206Z" fill="#0c2435" stroke="#0c2435"></path><path d="M286 227L185 278L321 266Z" fill="#297ea6" stroke="#297ea6"></path><path d="M306 600L389 600L399 518Z" fill="#00101c" stroke="#00101c"></path><path d="M701 478L765 413L668 407Z" fill="#205a7a" stroke="#205a7a"></path><path d="M765 413L782 331L668 407Z" fill="#1d4e6b" stroke="#1d4e6b"></path><path d="M201 203L185 278L286 227Z" fill="#1d4e6b" stroke="#1d4e6b"></path><path d="M295 99L201 203L286 227Z" fill="#205a7a" stroke="#205a7a"></path><path d="M515 600L617 600L571 529Z" fill="#0c2435" stroke="#0c2435"></path><path d="M701 478L817 493L765 413Z" fill="#00101c" stroke="#00101c"></path><path d="M185 278L176 366L295 408Z" fill="#297ea6" stroke="#297ea6"></path><path d="M629 0L470 86L573 132Z" fill="#205a7a" stroke="#205a7a"></path><path d="M470 86L429 0L364 102Z" fill="#19435d" stroke="#19435d"></path><path d="M461 0L429 0L470 86Z" fill="#205a7a" stroke="#205a7a"></path><path d="M186 600L306 600L263 507Z" fill="#19435d" stroke="#19435d"></path><path d="M263 507L306 600L399 518Z" fill="#081a28" stroke="#081a28"></path><path d="M617 600L679 600L701 478Z" fill="#112e42" stroke="#112e42"></path><path d="M665 107L629 0L573 132Z" fill="#0c2435" stroke="#0c2435"></path><path d="M681 0L629 0L665 107Z" fill="#1d4e6b" stroke="#1d4e6b"></path><path d="M681 0L665 107L829 127Z" fill="#15384f" stroke="#15384f"></path><path d="M176 366L193 529L263 507Z" fill="#205a7a" stroke="#205a7a"></path><path d="M185 278L118 338L176 366Z" fill="#0c2435" stroke="#0c2435"></path><path d="M176 366L131 501L193 529Z" fill="#205a7a" stroke="#205a7a"></path><path d="M122 182L118 338L185 278Z" fill="#112e42" stroke="#112e42"></path><path d="M900 299L835 214L782 331Z" fill="#00101c" stroke="#00101c"></path><path d="M782 331L835 214L685 292Z" fill="#00101c" stroke="#00101c"></path><path d="M429 0L298 0L364 102Z" fill="#246688" stroke="#246688"></path><path d="M138 129L122 182L201 203Z" fill="#112e42" stroke="#112e42"></path><path d="M201 203L122 182L185 278Z" fill="#081a28" stroke="#081a28"></path><path d="M818 600L817 493L701 478Z" fill="#19435d" stroke="#19435d"></path><path d="M900 374L900 299L782 331Z" fill="#246688" stroke="#246688"></path><path d="M829 127L665 107L702 168Z" fill="#0c2435" stroke="#0c2435"></path><path d="M169 88L201 203L295 99Z" fill="#15384f" stroke="#15384f"></path><path d="M213 0L169 88L295 99Z" fill="#277297" stroke="#277297"></path><path d="M169 88L138 129L201 203Z" fill="#15384f" stroke="#15384f"></path><path d="M77 439L131 501L176 366Z" fill="#0c2435" stroke="#0c2435"></path><path d="M193 529L186 600L263 507Z" fill="#205a7a" stroke="#205a7a"></path><path d="M835 214L829 127L702 168Z" fill="#277297" stroke="#277297"></path><path d="M128 600L186 600L193 529Z" fill="#1d4e6b" stroke="#1d4e6b"></path><path d="M900 374L782 331L765 413Z" fill="#205a7a" stroke="#205a7a"></path><path d="M835 214L900 124L829 127Z" fill="#277297" stroke="#277297"></path><path d="M298 0L213 0L295 99Z" fill="#205a7a" stroke="#205a7a"></path><path d="M169 88L95 0L138 129Z" fill="#246688" stroke="#246688"></path><path d="M817 493L900 374L765 413Z" fill="#246688" stroke="#246688"></path><path d="M118 338L77 439L176 366Z" fill="#112e42" stroke="#112e42"></path><path d="M131 501L128 600L193 529Z" fill="#00101c" stroke="#00101c"></path><path d="M0 401L77 439L118 338Z" fill="#00101c" stroke="#00101c"></path><path d="M900 299L900 238L835 214Z" fill="#1d4e6b" stroke="#1d4e6b"></path><path d="M679 600L818 600L701 478Z" fill="#0c2435" stroke="#0c2435"></path><path d="M817 493L900 530L900 374Z" fill="#112e42" stroke="#112e42"></path><path d="M0 529L128 600L131 501Z" fill="#15384f" stroke="#15384f"></path><path d="M900 238L900 124L835 214Z" fill="#297ea6" stroke="#297ea6"></path><path d="M829 127L834 0L681 0Z" fill="#0c2435" stroke="#0c2435"></path><path d="M818 600L900 530L817 493Z" fill="#15384f" stroke="#15384f"></path><path d="M900 124L834 0L829 127Z" fill="#15384f" stroke="#15384f"></path><path d="M122 182L0 322L118 338Z" fill="#1d4e6b" stroke="#1d4e6b"></path><path d="M77 439L0 529L131 501Z" fill="#1d4e6b" stroke="#1d4e6b"></path><path d="M0 173L0 322L122 182Z" fill="#1d4e6b" stroke="#1d4e6b"></path><path d="M0 173L122 182L0 128Z" fill="#205a7a" stroke="#205a7a"></path><path d="M0 322L0 401L118 338Z" fill="#00101c" stroke="#00101c"></path><path d="M818 600L900 600L900 530Z" fill="#297ea6" stroke="#297ea6"></path><path d="M213 0L95 0L169 88Z" fill="#0c2435" stroke="#0c2435"></path><path d="M0 128L122 182L138 129Z" fill="#205a7a" stroke="#205a7a"></path><path d="M95 0L0 128L138 129Z" fill="#15384f" stroke="#15384f"></path><path d="M0 401L0 529L77 439Z" fill="#297ea6" stroke="#297ea6"></path><path d="M900 124L900 0L834 0Z" fill="#205a7a" stroke="#205a7a"></path><path d="M0 529L0 600L128 600Z" fill="#00101c" stroke="#00101c"></path><path d="M95 0L0 0L0 128Z" fill="#15384f" stroke="#15384f"></path></g></svg>